# Blender v2.57 (sub 1) OBJ File: 'house.blend'
# www.blender.org
o Mesh_Box01
v 0.755567 7.052189 5.757910
v 0.755567 7.052191 -8.538283
v -4.103136 3.741932 -8.538283
v -4.103136 3.741930 5.757909
v -4.103136 -0.000001 5.757909
v 5.896864 -0.000001 5.757909
v 5.896864 3.741930 5.757909
v 5.896864 0.000001 -8.538284
v 5.896864 3.741932 -8.538283
v -4.103136 0.000001 -8.538284
vt 0.726562 0.425781
vt 0.269531 0.425781
vt 0.269531 0.226562
vt 0.726562 0.226562
vt 0.828125 0.160156
vt 1.003906 0.410156
vt 0.910156 0.472656
vt 0.738281 0.402344
vt 0.734375 0.222656
vt 0.269531 0.093750
vt 0.726562 0.093750
vt 0.007812 0.402344
vt 0.175781 0.160156
vt 0.265625 0.222656
vt 0.265625 0.398438
vt 0.097656 0.464844
vt 0.726562 0.738281
vt 0.269531 0.738281
vt 0.269531 0.613281
vt 0.726562 0.613281
vn -0.563047 0.826425 0.000000
vn 0.000000 -0.000000 1.000000
vn 1.000000 0.000000 0.000000
vn 0.000000 0.000000 -1.000000
vn -1.000000 0.000000 -0.000000
vn 0.541352 0.840796 0.000000
usemtl Material_house.png
s off
f 1/1/1 2/2/1 3/3/1
f 4/4/1 1/1/1 3/3/1
f 5/5/2 6/6/2 7/7/2
f 7/7/2 1/8/2 5/5/2
f 5/5/2 1/8/2 4/9/2
f 6/10/3 8/11/3 9/4/3
f 9/4/3 7/3/3 6/10/3
f 8/12/4 10/13/4 3/14/4
f 8/12/4 3/14/4 2/15/4
f 8/12/4 2/15/4 9/16/4
f 10/17/5 5/18/5 4/19/5
f 4/19/5 3/20/5 10/17/5
f 7/20/6 9/19/6 2/2/6
f 2/2/6 1/1/6 7/20/6
