# Blender v2.57 (sub 1) OBJ File: 'palm.blend'
# www.blender.org
o Mesh_Cylinder01
v 1.739102 0.219040 0.137075
v 1.276191 0.219040 -1.134763
v 0.465336 26.202652 -1.082741
v 0.680606 26.108070 -0.498903
v 0.104059 0.219040 -1.811494
v -0.079747 26.252975 -1.393394
v -1.228840 0.219040 -1.576468
v -0.699592 26.235497 -1.285505
v -2.098828 0.219040 -0.539656
v -1.104167 26.158394 -0.809556
v -2.098828 0.219040 0.813806
v -1.104167 26.057739 -0.188249
v -1.228840 0.219040 1.850617
v -0.699591 25.980637 0.287699
v 0.104060 0.219040 2.085642
v -0.079746 25.963158 0.395588
v 1.276191 0.219040 1.408912
v 0.465336 26.013489 0.084934
v 1.195027 30.092033 -1.072917
v 1.633150 29.899536 0.115324
v 0.085661 30.194458 -1.705166
v -1.175863 30.158882 -1.485588
v -1.999265 30.001961 -0.516925
v -1.999265 29.797112 0.747575
v -1.175863 29.640182 1.716237
v 0.085662 29.604607 1.935815
v 1.195027 29.707039 1.303565
v 0.566951 30.885162 -0.179964
v -0.056712 30.942741 -0.535402
v -0.765916 30.922745 -0.411960
v -1.228815 30.834526 0.132603
v -1.228815 30.719360 0.843478
v -0.765915 30.631142 1.388041
v -0.056712 30.611145 1.511483
v 0.566951 30.668724 1.156045
v 0.813254 30.776939 0.488040
v 9.485655 34.247231 -1.106021
v 8.297974 34.769066 -4.327150
v 6.872615 35.183601 -5.891212
v 3.865303 35.461258 -7.605137
v -0.217036 35.555229 -9.180026
v -3.636824 35.458801 -8.584785
v -5.723828 35.188232 -6.914584
v -7.955934 34.762833 -4.288695
v -9.956896 34.254318 -1.149748
v -9.956896 33.698997 2.278105
v -8.799517 33.190483 4.123861
v -6.567407 32.765083 6.749749
v -3.636821 32.494514 9.713143
v -0.217033 32.398087 10.308382
v 3.115506 32.492058 9.728328
v 6.122818 32.769714 8.014400
v 8.297976 33.184258 5.455505
v 9.485655 33.706085 2.234377
v 15.874708 30.934420 -5.870240
v 9.084478 33.101063 -13.745619
v -3.217318 32.066090 -16.751167
v -12.532389 29.430735 -10.961544
v -17.387934 29.177765 -0.080616
v -13.375967 28.233763 9.507118
v -3.217309 25.715849 16.589931
v 8.328140 28.822363 14.898531
v 14.913696 29.058556 4.852025
vt 0.011719 0.808594
vt 0.011719 0.675781
vt 0.382812 0.769531
vt 0.382812 0.796875
vt 0.484375 0.925781
vt 0.484375 0.878906
vt 0.855469 0.910156
vt 0.382812 0.738281
vt 0.484375 0.792969
vt 0.855469 0.855469
vt 0.484375 0.789062
vt 0.484375 0.679688
vt 0.855469 0.730469
vt 0.855469 0.753906
vt 0.484375 0.734375
vt 0.855469 0.699219
vt 0.484375 0.683594
vt 0.011719 0.953125
vt 0.011719 0.820312
vt 0.382812 0.863281
vt 0.382812 0.890625
vt 0.011719 0.882812
vt 0.382812 0.832031
vt 0.382812 0.835938
vt 0.855469 0.886719
vt 0.855469 0.867188
vt 0.945312 0.843750
vt 0.945312 0.882812
vt 0.855469 0.847656
vt 0.945312 0.808594
vt 0.945312 0.804688
vt 0.382812 0.792969
vt 0.472656 0.761719
vt 0.472656 0.789062
vt 0.382812 0.753906
vt 0.472656 0.730469
vt 0.382812 0.734375
vt 0.472656 0.695312
vt 0.382812 0.894531
vt 0.382812 0.882812
vt 0.472656 0.890625
vt 0.472656 0.933594
vt 0.472656 0.863281
vt 0.472656 0.835938
vt 0.945312 0.906250
vt 0.331954 0.380204
vt 0.344397 0.356792
vt 0.368968 0.346842
vt 0.394192 0.355023
vt 0.408256 0.377505
vt 0.404582 0.403769
vt 0.384876 0.421514
vt 0.358379 0.422452
vt 0.337478 0.406137
vt 0.152189 0.441868
vt 0.144035 0.350544
vt 0.162378 0.284594
vt 0.216007 0.218567
vt 0.247735 0.193758
vt 0.331197 0.161625
vt 0.423848 0.160378
vt 0.506459 0.198152
vt 0.555945 0.238596
vt 0.599709 0.316294
vt 0.605071 0.393280
vt 0.579691 0.488326
vt 0.545288 0.509416
vt 0.482052 0.575804
vt 0.397454 0.599206
vt 0.309572 0.593060
vt 0.241189 0.574964
vt 0.182109 0.513313
vt 0.010146 0.387477
vt 0.054781 0.142159
vt 0.254914 0.003677
vt 0.542154 0.019544
vt 0.711048 0.202961
vt 0.755385 0.472658
vt 0.604263 0.658102
vt 0.352011 0.722858
vt 0.100981 0.643031
vn 0.939270 0.029996 -0.341866
vn 0.939399 0.030019 -0.341508
vn 0.499924 0.017436 -0.865894
vn 0.496276 0.017225 -0.867994
vn -0.173630 0.014545 -0.984704
vn -0.171861 0.014606 -0.985013
vn -0.765848 0.022680 -0.642622
vn -0.763543 0.022750 -0.645356
vn -0.999260 0.038467 0.000000
vn -0.999244 0.038381 0.006218
vn -0.764899 0.054653 0.641827
vn -0.756429 0.054397 0.651809
vn -0.173299 0.063284 0.982834
vn -0.169409 0.063149 0.983521
vn 0.499097 0.060060 0.864462
vn 0.490013 0.060587 0.869607
vn 0.938664 0.046771 0.341646
vn 0.934675 0.047466 0.352319
vn 0.915170 -0.170774 -0.365103
vn 0.486951 -0.089163 -0.868866
vn -0.169117 -0.070663 -0.983060
vn -0.169116 -0.070663 -0.983060
vn -0.746054 -0.123931 -0.654251
vn -0.746054 -0.123931 -0.654252
vn -0.973904 -0.224041 -0.036296
vn -0.973904 -0.224041 -0.036295
vn -0.746051 -0.324153 0.581663
vn -0.746054 -0.324152 0.581661
vn -0.169117 -0.377420 0.910469
vn 0.486955 -0.358920 0.796273
vn 0.486954 -0.358920 0.796274
vn 0.915170 -0.277309 0.292514
vn 0.915170 -0.277309 0.292513
vn 0.000000 0.987132 0.159909
vn 0.000008 0.987130 0.159921
vn -0.000001 0.987131 0.159915
vn -0.000002 0.987130 0.159917
vn -0.000001 0.987131 0.159916
vn 0.000005 0.987130 0.159919
vn 0.000016 0.987130 0.159919
vn -0.316071 0.911217 0.264166
vn -0.316071 0.911218 0.264161
vn -0.179979 0.871113 0.456913
vn -0.179977 0.871113 0.456914
vn 0.056814 0.881279 0.469168
vn 0.056813 0.881280 0.469168
vn 0.271589 0.886567 0.374484
vn 0.271587 0.886567 0.374485
vn 0.341444 0.927805 0.150310
vn 0.341445 0.927806 0.150307
vn 0.277477 0.957330 -0.080779
vn 0.277477 0.957330 -0.080777
vn 0.061978 0.978321 -0.197600
vn 0.061979 0.978321 -0.197600
vn -0.177493 0.972002 -0.153977
vn -0.177496 0.972001 -0.153976
vn -0.325770 0.944875 0.032951
vn -0.325772 0.944874 0.032954
vn 0.448154 0.893722 -0.020455
vn 0.201250 0.959382 -0.197700
vn -0.093076 0.917764 -0.386065
vn -0.506156 0.808875 -0.299212
vn -0.545786 0.827141 0.133999
vn -0.365338 0.818614 0.443169
vn -0.102211 0.705315 0.701487
vn 0.173938 0.877297 0.447320
vn 0.522115 0.790344 0.320549
usemtl None_palm.png
s off
f 1/1/1 2/2/1 3/3/1
f 4/4/2 1/1/2 3/3/2
f 2/5/3 5/6/3 6/7/3
f 6/8/4 3/3/4 2/2/4
f 5/6/5 7/9/5 8/10/5
f 8/10/6 6/7/6 5/6/6
f 7/11/7 9/12/7 10/13/7
f 10/13/8 8/14/8 7/11/8
f 9/11/9 11/15/9 12/14/9
f 12/16/10 10/13/10 9/12/10
f 11/15/11 13/17/11 14/16/11
f 14/16/12 12/14/12 11/15/12
f 13/18/13 15/19/13 16/20/13
f 16/20/14 14/21/14 13/18/14
f 15/18/15 17/22/15 18/21/15
f 18/23/16 16/20/16 15/19/16
f 17/22/17 1/19/17 4/24/17
f 4/24/18 18/21/18 17/22/18
f 4/25/19 3/26/19 19/27/19
f 19/27/19 20/28/19 4/25/19
f 3/26/20 6/29/20 21/30/20
f 21/31/20 19/27/20 3/26/20
f 6/32/21 8/3/21 22/33/21
f 22/33/22 21/34/22 6/32/22
f 8/3/23 10/35/23 23/36/23
f 23/36/24 22/33/24 8/3/24
f 10/35/25 12/37/25 24/38/25
f 24/38/26 23/36/26 10/35/26
f 12/39/27 14/40/27 25/41/27
f 25/41/28 24/42/28 12/39/28
f 14/40/29 16/20/29 26/43/29
f 26/43/29 25/41/29 14/40/29
f 16/20/30 18/24/30 27/44/30
f 27/44/31 26/43/31 16/20/31
f 18/7/32 4/25/32 20/28/32
f 20/28/33 27/45/33 18/7/33
f 28/46/34 29/47/34 30/48/34
f 30/48/35 31/49/35 32/50/35
f 32/50/36 33/51/36 34/52/36
f 30/48/37 32/50/37 34/52/37
f 28/46/38 30/48/38 34/52/38
f 28/46/39 34/52/39 35/53/39
f 36/54/40 28/46/40 35/53/40
f 28/46/41 36/54/41 37/55/41
f 37/55/42 38/56/42 28/46/42
f 29/47/43 28/46/43 39/57/43
f 39/57/44 40/58/44 29/47/44
f 30/48/45 29/47/45 41/59/45
f 41/59/46 42/60/46 30/48/46
f 31/49/47 30/48/47 43/61/47
f 43/61/48 44/62/48 31/49/48
f 32/50/49 31/49/49 45/63/49
f 45/63/50 46/64/50 32/50/50
f 33/51/51 32/50/51 47/65/51
f 47/65/52 48/66/52 33/51/52
f 34/52/53 33/51/53 49/67/53
f 49/67/54 50/68/54 34/52/54
f 35/53/55 34/52/55 51/69/55
f 51/69/56 52/70/56 35/53/56
f 36/54/57 35/53/57 53/71/57
f 53/71/58 54/72/58 36/54/58
f 38/56/59 37/55/59 55/73/59
f 40/58/60 39/57/60 56/74/60
f 42/60/61 41/59/61 57/75/61
f 44/62/62 43/61/62 58/76/62
f 46/64/63 45/63/63 59/77/63
f 48/66/64 47/65/64 60/78/64
f 50/68/65 49/67/65 61/79/65
f 52/70/66 51/69/66 62/80/66
f 54/72/67 53/71/67 63/81/67
