# Blender v2.57 (sub 1) OBJ File: 'tribune.blend'
# www.blender.org
o Mesh_Box02
v -30.032448 40.757099 41.068272
v -30.032448 33.873741 19.935524
v -59.390862 33.873741 19.935524
v -59.390862 40.757099 41.068272
v -19.981125 -0.000008 46.192894
v -19.981125 29.441620 46.192898
v -59.390862 29.441618 46.192898
v -59.390862 -0.000008 46.192894
v 72.588829 -0.000008 46.192894
v 72.588829 -0.000007 41.068264
v 72.588829 40.757099 41.068272
v 72.588829 29.441618 46.192898
v 72.588829 0.000007 -40.101524
v 72.588829 14.318473 -40.101521
v 72.588829 20.918537 -19.838522
v 72.588829 27.326107 -0.166506
v 72.588829 33.873741 19.935524
v 6.585617 0.000007 -40.101524
v 6.585617 14.318473 -40.101521
v 6.598984 14.318473 -40.101521
v 39.713455 14.318473 -40.101521
v -59.390862 0.000007 -40.101524
v -59.390862 -0.000007 41.068264
v -59.390862 27.326107 -0.166509
v -59.390862 20.918537 -19.838522
v -59.390862 14.318473 -40.101521
v -19.981125 46.419968 46.192902
v -59.390862 46.419968 46.192902
v 72.588829 46.419968 41.068272
v 72.588829 46.419968 46.192902
v 39.713455 40.757099 41.068272
v 30.116125 40.757095 41.068268
v 30.116127 46.419968 41.068268
v -59.390862 46.419968 41.068272
v 39.713455 33.873741 19.935524
v 6.598984 33.873741 19.935524
v 6.598984 40.757099 41.068272
v -20.014391 40.757099 41.068272
v -30.032448 14.318473 -40.101521
v -30.032448 20.918537 -19.838522
v 6.598984 20.918537 -19.838522
v 39.713455 20.918537 -19.838522
v -30.032448 27.326107 -0.166506
v 6.598984 27.326107 -0.166506
v 39.713455 27.326107 -0.166506
v 29.966774 29.441618 46.192898
v 29.966774 -0.000008 46.192894
v 29.966774 46.419968 46.192902
v -20.014389 46.419968 41.068272
vt 0.386719 0.328125
vt 0.386719 0.246094
vt 0.496094 0.246094
vt 0.496094 0.328125
vt 0.148438 0.328125
vt 0.148438 0.476562
vt 0.000000 0.476562
vt 0.000000 0.328125
vt 0.828125 0.578125
vt 0.812500 0.578125
vt 0.812500 0.457031
vt 0.828125 0.496094
vt 0.574219 0.578125
vt 0.574219 0.531250
vt 0.632812 0.523438
vt 0.695312 0.507812
vt 0.765625 0.496094
vt 0.507812 0.214844
vt 0.738281 0.214844
vt 0.738281 0.273438
vt 1.093750 0.398438
vt 1.023438 0.718750
vt 0.621094 0.273438
vt 0.507812 0.273438
vt 0.253906 0.843750
vt 0.031250 0.843750
vt 0.031250 0.726562
vt 0.089844 0.738281
vt 0.148438 0.750000
vt 0.207031 0.773438
vt 0.261719 0.800781
vt 0.003906 0.843750
vt 0.003906 0.757812
vt 0.148438 0.582031
vt 0.000000 0.582031
vt 0.812500 0.441406
vt 0.828125 0.441406
vt 0.695312 0.730469
vt 0.656250 0.730469
vt 0.656250 0.664062
vt 0.832031 0.730469
vt 0.832031 0.664062
vt 0.003906 0.703125
vt 0.031250 0.703125
vt 0.125000 0.328125
vt 0.125000 0.246094
vt 0.246094 0.246094
vt 0.160156 0.328125
vt 0.246094 0.328125
vt 0.003906 0.328125
vt 0.003906 0.246094
vt 0.347656 0.328125
vt 0.386719 0.003906
vt 0.496094 0.003906
vt 0.496094 0.085938
vt 0.386719 0.085938
vt 0.125000 0.003906
vt 0.246094 0.003906
vt 0.246094 0.085938
vt 0.125000 0.085938
vt 0.003906 0.003906
vt 0.003906 0.085938
vt 0.496094 0.164062
vt 0.386719 0.164062
vt 0.246094 0.164062
vt 0.125000 0.164062
vt 0.003906 0.164062
vt 0.496094 0.476562
vt 0.320312 0.476562
vt 0.320312 0.328125
vt 0.496094 0.582031
vt 0.320312 0.582031
vt 0.578125 0.730469
vt 0.488281 0.730469
vt 0.488281 0.664062
vt 0.414062 0.730469
vt 0.335938 0.730469
vt 0.335938 0.664062
vt 0.992188 0.214844
vt 0.992188 0.273438
vt 0.878906 0.273438
vt 0.488281 0.593750
vt 0.335938 0.593750
vt 0.656250 0.593750
vt 0.832031 0.593750
vn 0.000000 0.950833 -0.309705
vn 0.000000 -0.000000 1.000000
vn 1.000000 0.000000 0.000000
vn 0.000000 0.000000 -1.000000
vn -1.000000 0.000000 -0.000000
vn 0.000000 -0.000001 -1.000000
vn 0.000000 1.000000 0.000000
usemtl Material_tribune.png
s off
f 1/1/1 2/2/1 3/3/1
f 4/4/1 1/1/1 3/3/1
f 5/5/2 6/6/2 7/7/2
f 7/7/2 8/8/2 5/5/2
f 9/9/3 10/10/3 11/11/3
f 11/11/3 12/12/3 9/9/3
f 10/10/3 13/13/3 14/14/3
f 10/10/3 14/14/3 15/15/3
f 10/10/3 15/15/3 16/16/3
f 10/10/3 16/16/3 17/17/3
f 10/10/3 17/17/3 11/11/3
f 13/18/4 18/19/4 19/20/4
f 13/21/4 19/22/4 20/22/4
f 13/18/4 20/20/4 21/23/4
f 13/18/4 21/23/4 14/24/4
f 22/25/5 23/26/5 4/27/5
f 22/25/5 4/27/5 3/28/5
f 22/25/5 3/28/5 24/29/5
f 22/25/5 24/29/5 25/30/5
f 22/25/5 25/30/5 26/31/5
f 23/26/5 8/32/5 7/33/5
f 7/33/5 4/27/5 23/26/5
f 6/6/2 27/34/2 28/35/2
f 28/35/2 7/7/2 6/6/2
f 11/11/3 29/36/3 30/37/3
f 30/37/3 12/12/3 11/11/3
f 31/38/4 32/39/4 33/40/4
f 11/41/6 31/38/6 33/40/6
f 11/41/4 33/40/4 29/42/4
f 4/27/5 7/33/5 28/43/5
f 28/43/5 34/44/5 4/27/5
f 31/45/1 35/46/1 36/47/1
f 32/48/1 31/45/1 36/47/1
f 37/49/1 32/48/1 36/47/1
f 11/50/1 17/51/1 35/46/1
f 35/46/1 31/45/1 11/50/1
f 37/49/1 36/47/1 2/2/1
f 38/52/1 37/49/1 2/2/1
f 1/1/1 38/52/1 2/2/1
f 39/53/1 26/54/1 25/55/1
f 25/55/1 40/56/1 39/53/1
f 21/57/1 20/58/1 41/59/1
f 41/59/1 42/60/1 21/57/1
f 14/61/1 21/57/1 42/60/1
f 42/60/1 15/62/1 14/61/1
f 19/58/1 39/53/1 40/56/1
f 20/58/1 19/58/1 40/56/1
f 41/59/1 20/58/1 40/56/1
f 40/56/1 25/55/1 24/63/1
f 24/63/1 43/64/1 40/56/1
f 42/60/1 41/59/1 44/65/1
f 44/65/1 45/66/1 42/60/1
f 15/62/1 42/60/1 45/66/1
f 45/66/1 16/67/1 15/62/1
f 41/59/1 40/56/1 43/64/1
f 43/64/1 44/65/1 41/59/1
f 43/64/1 24/63/1 3/3/1
f 3/3/1 2/2/1 43/64/1
f 45/66/1 44/65/1 36/47/1
f 36/47/1 35/46/1 45/66/1
f 16/67/1 45/66/1 35/46/1
f 35/46/1 17/51/1 16/67/1
f 44/65/1 43/64/1 2/2/1
f 2/2/1 36/47/1 44/65/1
f 9/4/2 12/68/2 46/69/2
f 46/69/2 47/70/2 9/4/2
f 12/68/2 30/71/2 48/72/2
f 48/72/2 46/69/2 12/68/2
f 47/70/2 46/69/2 6/6/2
f 6/6/2 5/5/2 47/70/2
f 46/69/2 48/72/2 27/34/2
f 27/34/2 6/6/2 46/69/2
f 37/73/4 38/74/4 49/75/4
f 32/39/6 37/73/6 49/75/6
f 32/39/4 49/75/4 33/40/4
f 1/76/4 4/77/4 34/78/4
f 38/74/4 1/76/4 34/78/4
f 38/74/4 34/78/4 49/75/4
f 18/19/4 22/79/4 26/80/4
f 18/19/4 26/80/4 39/81/4
f 18/19/4 39/81/4 19/20/4
f 27/82/7 49/75/7 34/78/7
f 28/83/7 27/82/7 34/78/7
f 48/84/7 33/40/7 49/75/7
f 27/82/7 48/84/7 49/75/7
f 30/85/7 29/42/7 33/40/7
f 48/84/7 30/85/7 33/40/7
